# xmcd
#
# Track frame offsets: 
#        150
#        13855
#        32620
#        44075
#        60730
#        77277
#        97585
#        118557
#        144870
#        160990
#        182765
#        193935
#        206967
#
# Disc length: 2971 seconds
#
# Revision: 1
# Processed by: cddbd v1.5.2PL0 Copyright (c) Steve Scherf et al.
# Submitted via: ExactAudioCopyFreeDBPlugin 1.0
#
DISCID=ab0b990d
DTITLE=Nashville Train - Nashville Train
DYEAR=1993
DGENRE=Country
TTITLE0=Riding On The Nashville Train
TTITLE1=Should I Be Dreamer
TTITLE2=I Should Have Known
TTITLE3=I'm Not Into That Rocking
TTITLE4=Simple Country Song
TTITLE5=City Of New Orleans
TTITLE6=Maggie May
TTITLE7=Orange Blossom Special
TTITLE8=Augsburg Town
TTITLE9=Sweetheart Of The Honky Tonk
TTITLE10=Saturday Night
TTITLE11=C'est La Vie (You Can Never Tell)
TTITLE12=Square Dance
EXTD=
EXTT0=
EXTT1=
EXTT2=
EXTT3=
EXTT4=
EXTT5=
EXTT6=
EXTT7=
EXTT8=
EXTT9=
EXTT10=
EXTT11=
EXTT12=
PLAYORDER=
